# xmcd
#
# Track frame offsets: 
#        150
#        13890
#        26969
#        48516
#        64539
#        77834
#        95773
#        111115
#        128942
#        150447
#        165269
#        176698
#
# Disc length: 2678 seconds
#
# Revision: 0
# Processed by: cddbd v1.5.2PL0 Copyright (c) Steve Scherf et al.
# Submitted via: ExactAudioCopyFreeDBPlugin 1.0
#
DISCID=970a740c
DTITLE=Mount Moriah - Miracle Temple
DYEAR=2013
DGENRE=Alternative
TTITLE0=Younger Days
TTITLE1=Bright Light
TTITLE2=Eureka Springs
TTITLE3=I Built a Town
TTITLE4=White Sands
TTITLE5=Connecticut to Carolina
TTITLE6=Rosemary
TTITLE7=Swannanoa
TTITLE8=Miracle Temple Holiness
TTITLE9=Union Street Bridge
TTITLE10=Those Girls
TTITLE11=Telling the Hour
EXTD=
EXTT0=
EXTT1=
EXTT2=
EXTT3=
EXTT4=
EXTT5=
EXTT6=
EXTT7=
EXTT8=
EXTT9=
EXTT10=
EXTT11=
PLAYORDER=
